PathFileType	4	(X/Y/Z)	Patient4_TMGait_0pt4_02_left_35.trc.trc
DataRate	CameraRate	NumFrames	NumMarkers	Units	OrigDataRate	OrigDataStartFrame	OrigNumFrames
74.074074074074	74.074074074074	4	33	mm	74.074074074074	106	       141
Frame#	Time	Sacral			L.Shoulder			Chest			R.Shoulder			Neck			R.ASIS			L.ASIS			R.Thigh.Superior			R.Thigh.Lateral			R.Thigh.Inferior			R.Patella			L.Thigh.Superior			L.Thigh.Lateral			L.Thigh.Inferior			L.Patella			L.Shank.Superior			L.Shank.Lateral			L.Shank.Inferior			R.Shank.Superior			R.Shank.Lateral			R.Shank.Inferior			R.Heel			R.Midfoot.Superior			R.Midfoot.Lateral			R.Toe			L.Heel			L.Midfoot.Lateral			L.Midfoot.Superior			L.Toe			L.Elbow			L.Wrist			R.Elbow			R.Wrist			
		X1	Y1	Z1	X2	Y2	Z2	X3	Y3	Z3	X4	Y4	Z4	X5	Y5	Z5	X6	Y6	Z6	X7	Y7	Z7	X8	Y8	Z8	X9	Y9	Z9	X10	Y10	Z10	X11	Y11	Z11	X12	Y12	Z12	X13	Y13	Z13	X14	Y14	Z14	X15	Y15	Z15	X16	Y16	Z16	X17	Y17	Z17	X18	Y18	Z18	X19	Y19	Z19	X20	Y20	Z20	X21	Y21	Z21	X22	Y22	Z22	X23	Y23	Z23	X24	Y24	Z24	X25	Y25	Z25	X26	Y26	Z26	X27	Y27	Z27	X28	Y28	Z28	X29	Y29	Z29	X30	Y30	Z30	X31	Y31	Z31	X32	Y32	Z32	X33	Y33	Z33	

106	48.207500000000	831.807239746856	1007.467876046147	527.492752253551	980.863268968614	1437.420069242123	332.510875527242	1103.815544440172	1372.493201995367	480.545403960009	1040.658474209108	1442.728435188020	664.292242627195	980.766811010147	1499.286721969001	490.689739063083	1069.381038357021	945.378841899598	622.940777062184	1030.523503692780	969.077396066088	350.970625559644	1086.746412196012	737.377143543068	590.676186513524	996.896613262698	634.084245108030	655.715480090631	1062.524390440271	575.674442367178	572.728708438848	1053.384190652565	491.253431438512	577.199128034771	1117.823787130114	789.507293750960	368.683202365709	1071.632290144152	663.132544207461	286.894011823332	1180.677898911170	604.817642548851	338.314873888438	1202.152819130610	525.359080397821	327.028922775672	1158.094685849379	451.007300148396	316.871098027036	1040.990492444361	362.274659206270	269.615125769902	1083.178593097520	234.684970775221	314.346991293902	1023.641639603223	403.800444737427	583.411324747984	951.342811671940	301.483137082179	645.783302549465	986.842666325833	206.274465801612	578.534886729311	847.932472874910	43.636664617614	549.306259562045	1020.169927535311	96.383386589217	581.962154667834	932.660627578020	37.233437616123	621.999581165404	1140.922087743852	41.524546045527	606.312670838558	938.609179723763	97.159423469894	354.691692075276	1001.942984879651	85.066579248200	267.552636437986	1096.235760630980	133.312946805399	286.087835666441	1208.924853122651	65.664044429399	242.089156075669	901.165997737995	1090.212987243446	227.545521900164	924.838830945171	830.113233758481	214.386001230736	1136.252065483733	1123.819800168754	811.140854332391	1386.507532356050	1075.462974859545	781.219666775797	
107	48.221000000000	830.718959303470	1008.075282619725	528.606096176765	980.375732106625	1437.372925457782	333.074847091096	1104.276715930011	1371.799690798586	480.011050927551	1043.001585672047	1442.395355263392	664.282101128371	981.770942618952	1499.035296460352	491.288066003441	1068.591616806567	944.684920964458	622.414260460482	1028.320776678995	969.014838282455	350.657038395299	1083.958049307893	736.569119202716	589.867070824391	993.928027098782	633.862234166581	655.740417212289	1058.368477948968	575.054308542989	572.253093084224	1048.758665124235	490.848466068468	576.908805381319	1114.894667261083	789.502408502894	368.779497626551	1069.478679510759	663.554968645300	286.279670957655	1177.689775457672	605.092867180391	339.371132559542	1200.583148214347	527.629701053448	327.494480584507	1160.187064618219	453.235243850146	316.311096346007	1049.043281135670	357.869192357664	267.939560708787	1099.182184718674	232.518029686128	311.857161222145	1018.837941490734	403.579541854191	583.258517080630	946.574265891471	301.339572883162	645.879489287999	981.621847690183	206.107529057041	578.453016702429	842.463056555848	43.594852459963	549.364251344026	1014.670521002126	96.322126089464	581.940453246485	927.212851074576	37.194659246828	622.063859200709	1135.474758029918	41.479125929690	606.342098492837	963.688710041629	85.666061064367	351.176910573845	1027.824460351293	78.203585256142	263.972527992524	1119.006796034304	132.000510670989	282.888932362209	1235.779621883141	71.649404384292	238.549909844112	892.735894739929	1091.989378622961	229.416293780680	908.849399633924	831.333444844945	217.585380409230	1143.051556239077	1125.151834650567	810.159720540340	1394.803315384697	1090.354216079429	777.470096899619	
108	48.234500000000	829.598284950688	1008.613766905148	529.556919174557	979.956136896904	1437.247901112495	333.435385573661	1104.746668484075	1370.998825490427	479.296934998138	1045.319877441036	1441.960137997087	664.066099046998	982.782404654234	1498.718127011486	491.650688479952	1067.780153346727	943.952219208437	621.757297930478	1026.121558229281	968.796804565855	350.198025478743	1081.246632754112	735.748995651458	589.039350241288	991.052483324810	633.612497505717	655.716186751614	1054.319195547484	574.433561597600	571.747114899565	1044.233040297950	490.425665802592	576.604924184980	1111.712579544125	789.122861848005	368.844047812341	1067.062800503522	663.745533574957	285.477818540076	1174.296713065638	604.969976221665	340.392530442345	1198.549518171547	529.577346264142	327.959713061711	1161.761678144270	455.348677305594	315.823818809367	1056.914309154757	353.799767618563	266.119457698897	1114.500813853662	231.108234970066	309.579365028998	1014.106516992093	403.338832289873	583.091337412113	941.856801361488	301.195224057877	645.984346993845	976.428743199557	205.931780809657	578.367129384417	836.991233908375	43.556982139369	549.422994433841	1009.165206940479	96.256301773520	581.909610148158	921.765570982079	37.154092786992	622.126663955289	1130.030867990523	41.429765469998	606.363962844902	988.151457240921	75.809992313395	347.634572945711	1053.172479665089	72.621838309803	260.649619386839	1141.016016295854	131.623237295373	280.141523830114	1261.483951803826	78.340492929397	236.104299277984	884.943094532974	1093.748698905580	231.124504337754	893.935556760630	832.774320629007	220.503965217223	1149.517357806317	1126.254394582830	808.806101529595	1401.988310366775	1104.528679367820	773.507377405702	
109	48.248000000000	828.474312293040	1009.089820967728	530.338865464563	979.598636003019	1437.075224505358	333.583474233141	1105.205377156258	1370.128849766585	478.409043400392	1047.564108838185	1441.449816793188	663.642636350909	983.770484075233	1498.364487387025	491.763704237380	1066.964076772776	943.211286086959	620.978020158551	1023.946959439055	968.460191134323	349.594614726889	1078.645074441903	734.929260935042	588.224563266898	988.245246399312	633.355024514449	655.632579299571	1050.374046708274	573.819661345392	571.229486817430	1039.795954563157	489.998197521150	576.286485378596	1108.367734203411	788.476436722053	368.850893258950	1064.460122723372	663.748896818330	284.521068057987	1170.684243210946	604.571724178281	341.243031232806	1196.206817893800	531.251090001188	328.362877305412	1162.897565871768	457.346048426811	315.404872443569	1064.462757238286	350.195456439477	264.236920771420	1128.817461611561	230.461715665112	307.598626099758	1009.432410455518	403.092151932066	582.906695100628	937.171215509473	301.069567139662	646.092485758665	971.259779193848	205.762549433490	578.283317977226	831.520303239383	43.529868081579	549.484423779423	1003.661522931860	96.190923357344	581.876893197862	916.320204582343	37.115077564403	622.189343467445	1124.589578795965	41.377483342602	606.380735100185	1011.367045534784	67.766513884874	344.239321805967	1077.370875241611	68.356383943273	257.745801170266	1161.779172424647	132.103152177849	277.954026882209	1285.514625965500	85.446669686519	234.856355545499	877.829403200176	1095.464691131158	232.651228532551	880.162326474307	834.370395464829	223.101270755697	1155.639343615988	1127.149510600838	807.088987517942	1408.135484285298	1117.845814217518	769.385295862250	
